# xmcd CD database file
#
# Track frame offsets:
#	150
#	121992
#	197327
#
# Disc length: 3339 seconds
#
# Revision: 0
# Processed by: cddbd v1.5.2PL0 Copyright (c) Steve Scherf et al.
# Submitted via: CDex 1.51
#
DISCID=1d0d0903
DTITLE=Keith Jarrett Trio - North Sea Standards (disc1)
DYEAR=1985
DGENRE=Jazz
TTITLE0=I Didnt Know What Time It Was - My Ship
TTITLE1=God Bless The Child
TTITLE2=So Tender
EXTD=YEAR: 1985
EXTT0=
EXTT1=
EXTT2=
PLAYORDER=
